<svg xmlns="http://www.w3.org/2000/svg" width="162.335" height="41.476" viewBox="0 0 162.335 41.476">
  <g id="kelling-group-logo-grey" transform="translate(-6.865 -3.6)">
    <g id="Group_1" data-name="Group 1" transform="translate(72.37 3.6)">
      <path id="Path_1" data-name="Path 1" d="M95.938,14.668H93.717v8.644H91.1V4.2h2.617v8.486H95.7L102.6,4.2h2.855v.079L98,13.479l7.93,9.834v.079h-3.093Z" transform="translate(-90.624 -3.724)" fill="#494a4b"/>
      <path id="Path_2" data-name="Path 2" d="M122.94,14.43h-8.8v6.82h10.151v2.062H111.6V4.2h12.53V6.262h-9.992v6.186h8.8Z" transform="translate(-94.867 -3.724)" fill="#494a4b"/>
      <path id="Path_3" data-name="Path 3" d="M132.717,21.25h9.041v2.062H130.1V4.2h2.617Z" transform="translate(-98.696 -3.724)" fill="#494a4b"/>
      <path id="Path_4" data-name="Path 4" d="M149.617,21.25h9.041v2.062H147V4.2h2.617Z" transform="translate(-102.193 -3.724)" fill="#494a4b"/>
      <path id="Path_5" data-name="Path 5" d="M166.817,23.312H164.2V4.2h2.617Z" transform="translate(-105.753 -3.724)" fill="#494a4b"/>
      <path id="Path_6" data-name="Path 6" d="M186.713,23.312H184.1l-9.2-14.83h-.079V23.233H172.2V4.2h2.617l9.2,14.751h.079V4.2h2.617V23.312Z" transform="translate(-107.409 -3.724)" fill="#494a4b"/>
      <path id="Path_7" data-name="Path 7" d="M208.771,20.65a5.991,5.991,0,0,1-2.379,1.9,9.915,9.915,0,0,1-4.362.872,7.709,7.709,0,0,1-5.71-2.221,7.469,7.469,0,0,1-2.22-5.71V11.53a8.269,8.269,0,0,1,2.062-5.71A7.29,7.29,0,0,1,201.555,3.6a7.849,7.849,0,0,1,5.155,1.586,5.271,5.271,0,0,1,1.9,4.2v.079h-2.458a3.966,3.966,0,0,0-1.269-2.776,4.818,4.818,0,0,0-3.331-1.11,4.508,4.508,0,0,0-3.569,1.665,6.019,6.019,0,0,0-1.348,4.124v3.965a5.952,5.952,0,0,0,1.507,4.2,4.991,4.991,0,0,0,3.807,1.665,8.422,8.422,0,0,0,2.7-.4,4.942,4.942,0,0,0,1.507-.952V15.5h-4.2V13.434h6.82V20.65Z" transform="translate(-111.941 -3.6)" fill="#494a4b"/>
      <path id="Path_8" data-name="Path 8" d="M104.775,48.13a5.425,5.425,0,0,1-2.379,1.745,9.608,9.608,0,0,1-4.282.793,7.239,7.239,0,0,1-5.472-2.3A8.228,8.228,0,0,1,90.5,42.5V39.01a8.333,8.333,0,0,1,2.062-5.789A6.666,6.666,0,0,1,97.8,31a7.075,7.075,0,0,1,4.838,1.507,5.837,5.837,0,0,1,1.983,4.044v.079h-1.427a5.789,5.789,0,0,0-1.586-3.093,5.261,5.261,0,0,0-3.727-1.19,5.009,5.009,0,0,0-4.124,1.9,7.324,7.324,0,0,0-1.586,4.758v3.569A7.241,7.241,0,0,0,93.831,47.5a5.481,5.481,0,0,0,4.362,1.9,7.969,7.969,0,0,0,3.251-.555,3.648,3.648,0,0,0,1.824-1.19v-5H98.192V41.309h6.662l-.079,6.82Z" transform="translate(-90.5 -9.271)" fill="#494a4b"/>
      <path id="Path_9" data-name="Path 9" d="M114.686,41.868v8.644H113.1V31.4h6.5a7.552,7.552,0,0,1,4.758,1.348,4.767,4.767,0,0,1,1.665,3.965,4.563,4.563,0,0,1-.872,2.7,5.164,5.164,0,0,1-2.458,1.745,3.937,3.937,0,0,1,2.538,1.586,4.831,4.831,0,0,1,.793,2.855v1.824a4.769,4.769,0,0,0,.238,1.586,2.986,2.986,0,0,0,.714,1.19v.317h-1.586a3.118,3.118,0,0,1-.714-1.348,6.506,6.506,0,0,1-.159-1.745V45.675a3.7,3.7,0,0,0-1.11-2.776,4.5,4.5,0,0,0-3.172-1.031Zm0-1.348h4.679a5.6,5.6,0,0,0,3.807-1.031,3.653,3.653,0,0,0,1.19-2.855,3.71,3.71,0,0,0-1.19-2.934,5.186,5.186,0,0,0-3.569-1.031h-4.917V40.52Z" transform="translate(-95.177 -9.354)" fill="#494a4b"/>
      <path id="Path_10" data-name="Path 10" d="M147.909,42.42a8.957,8.957,0,0,1-2.062,6.027,7.565,7.565,0,0,1-10.865,0A8.639,8.639,0,0,1,133,42.42V39.327a8.912,8.912,0,0,1,1.983-6.027,6.834,6.834,0,0,1,5.393-2.3,7,7,0,0,1,5.472,2.3,8.814,8.814,0,0,1,2.062,6.027Zm-1.586-3.093a7.692,7.692,0,0,0-1.586-5,5.372,5.372,0,0,0-4.362-1.9,5.214,5.214,0,0,0-4.282,1.9,7.662,7.662,0,0,0-1.507,5V42.5a7.662,7.662,0,0,0,1.507,5,5.214,5.214,0,0,0,4.282,1.9,5.267,5.267,0,0,0,4.362-1.9,7.692,7.692,0,0,0,1.586-5Z" transform="translate(-99.296 -9.271)" fill="#494a4b"/>
      <path id="Path_11" data-name="Path 11" d="M168.92,31.4V44.406a5.984,5.984,0,0,1-1.9,4.758,7.312,7.312,0,0,1-5,1.665,7.1,7.1,0,0,1-4.917-1.665,5.984,5.984,0,0,1-1.9-4.758V31.4h1.586V44.327a5.023,5.023,0,0,0,1.427,3.807,5.435,5.435,0,0,0,3.807,1.348,5.784,5.784,0,0,0,3.886-1.348,4.947,4.947,0,0,0,1.507-3.807V31.4Z" transform="translate(-103.89 -9.354)" fill="#494a4b"/>
      <path id="Path_12" data-name="Path 12" d="M178.586,42.582v7.93H177V31.4h6.582a6.647,6.647,0,0,1,4.679,1.507,5.263,5.263,0,0,1,1.665,4.044A5.148,5.148,0,0,1,188.261,41a6.518,6.518,0,0,1-4.679,1.507l-5,.079Zm0-1.348h5a4.847,4.847,0,0,0,3.569-1.19,4.126,4.126,0,0,0,1.19-3.014,4.446,4.446,0,0,0-1.19-3.093,4.847,4.847,0,0,0-3.569-1.19h-5Z" transform="translate(-108.402 -9.354)" fill="#494a4b"/>
    </g>
    <g id="Group_3" data-name="Group 3" transform="translate(6.865 10.103)">
      <path id="Path_13" data-name="Path 13" d="M36.529,11.8H28.44L16.386,23.933H14.324V11.879H7.9v29.66h6.424V29.485h2.062L28.44,41.539h8.01L21.62,26.709Z" transform="translate(-7.9 -11.8)" fill="#494a4b"/>
      <path id="Path_14" data-name="Path 14" d="M58.429,41.539,73.18,26.788,61.681,15.21,50.023,26.868l3.886,3.886,7.772-7.772,3.648,3.648L54.781,37.1a1.679,1.679,0,0,1-2.458,0l-9.041-9.12a1.679,1.679,0,0,1,0-2.458L57,11.8H48.913L36.621,24.171a3.734,3.734,0,0,0,0,5.234L48.754,41.539Z" transform="translate(-13.623 -11.8)" fill="#494a4b"/>
      <g id="Group_2" data-name="Group 2" transform="translate(36.4 3.41)">
        <path id="Path_15" data-name="Path 15" d="M65.458,16.1,53.8,27.758l3.886,3.886,7.772-7.772Z" transform="translate(-53.8 -16.1)" fill="#f6be00"/>
      </g>
    </g>
  </g>
</svg>
